<svg width="40" height="40" viewBox="0 0 40 40" fill="none" xmlns="http://www.w3.org/2000/svg">
<path d="M21.4946 19.9966L30.6906 10.8007C31.1023 10.3889 31.1023 9.72056 30.6906 9.30881C30.2788 8.89706 29.6105 8.89706 29.1987 9.30881L20.0028 18.5048L10.8069 9.30891C10.3952 8.89716 9.72684 8.89716 9.31509 9.30891C8.90334 9.72066 8.90334 10.389 9.31509 10.8008L18.5109 19.9966L9.30881 29.1987C8.89706 29.6105 8.89706 30.2788 9.30881 30.6906C9.72056 31.1023 10.3889 31.1023 10.8007 30.6906L20.0028 21.4885L29.1993 30.6912C29.6111 31.1029 30.2794 31.1029 30.6912 30.6912C31.1029 30.2794 31.1029 29.6111 30.6912 29.1993L21.4946 19.9966Z" fill="black"/>
</svg>
