<svg width="33" height="22" viewBox="0 0 33 22" fill="none" xmlns="http://www.w3.org/2000/svg">
<path fill-rule="evenodd" clip-rule="evenodd" d="M0.795044 21C0.795044 20.4477 1.21642 20 1.73622 20H31.8539C32.3737 20 32.795 20.4477 32.795 21C32.795 21.5523 32.3737 22 31.8539 22H1.73622C1.21642 22 0.795044 21.5523 0.795044 21Z" fill="black"/>
<path fill-rule="evenodd" clip-rule="evenodd" d="M0.795044 11C0.795044 10.4477 1.21642 10 1.73622 10H31.8539C32.3737 10 32.795 10.4477 32.795 11C32.795 11.5523 32.3737 12 31.8539 12H1.73622C1.21642 12 0.795044 11.5523 0.795044 11Z" fill="black"/>
<path fill-rule="evenodd" clip-rule="evenodd" d="M0.795044 1C0.795044 0.447715 1.21642 0 1.73622 0H31.8539C32.3737 0 32.795 0.447715 32.795 1C32.795 1.55228 32.3737 2 31.8539 2H1.73622C1.21642 2 0.795044 1.55228 0.795044 1Z" fill="black"/>
</svg>
